<svg width="478" height="120" viewBox="0 0 478 120" fill="none" xmlns="http://www.w3.org/2000/svg">
<mask id="path-1-inside-1_231_24" fill="white">
<path fill-rule="evenodd" clip-rule="evenodd" d="M35.0183 0L48.4079 22.7741C48.4763 22.7739 48.5447 22.7737 48.6132 22.7737H65.4019L78.7912 0L92.1806 22.7737H429.387C456.235 22.7737 478 44.5386 478 71.3869C478 98.2352 456.235 120 429.387 120H48.6131C21.7648 120 0 98.2352 0 71.3869C0 59.4012 4.33757 48.4286 11.5286 39.9533L35.0183 0Z"/>
</mask>
<path fill-rule="evenodd" clip-rule="evenodd" d="M35.0183 0L48.4079 22.7741C48.4763 22.7739 48.5447 22.7737 48.6132 22.7737H65.4019L78.7912 0L92.1806 22.7737H429.387C456.235 22.7737 478 44.5386 478 71.3869C478 98.2352 456.235 120 429.387 120H48.6131C21.7648 120 0 98.2352 0 71.3869C0 59.4012 4.33757 48.4286 11.5286 39.9533L35.0183 0Z" fill="#5137FF"/>
<path d="M48.4079 22.7741L44.9597 24.8014L46.1251 26.7836L48.4244 26.7741L48.4079 22.7741ZM35.0183 0L38.4665 -2.0273L35.0183 -7.89228L31.5701 -2.0273L35.0183 0ZM65.4019 22.7737V26.7737H67.6902L68.8501 24.801L65.4019 22.7737ZM78.7912 0L82.2394 -2.0273L78.7912 -7.89228L75.343 -2.0273L78.7912 0ZM92.1806 22.7737L88.7324 24.801L89.8922 26.7737H92.1806V22.7737ZM11.5286 39.9533L14.5787 42.5411L14.8019 42.278L14.9768 41.9806L11.5286 39.9533ZM51.8561 20.7468L38.4665 -2.0273L31.5701 2.0273L44.9597 24.8014L51.8561 20.7468ZM48.6132 18.7737C48.5392 18.7737 48.4653 18.7739 48.3914 18.7742L48.4244 26.7741C48.4873 26.7739 48.5502 26.7737 48.6132 26.7737V18.7737ZM65.4019 18.7737H48.6132V26.7737H65.4019V18.7737ZM68.8501 24.801L82.2394 2.0273L75.343 -2.0273L61.9537 20.7464L68.8501 24.801ZM75.343 2.0273L88.7324 24.801L95.6288 20.7464L82.2394 -2.0273L75.343 2.0273ZM429.387 18.7737H92.1806V26.7737H429.387V18.7737ZM482 71.3869C482 42.3294 458.444 18.7737 429.387 18.7737V26.7737C454.026 26.7737 474 46.7477 474 71.3869H482ZM429.387 124C458.444 124 482 100.444 482 71.3869H474C474 96.026 454.026 116 429.387 116V124ZM48.6131 124H429.387V116H48.6131V124ZM-4 71.3869C-4 100.444 19.5557 124 48.6131 124V116C23.974 116 4 96.026 4 71.3869H-4ZM8.47852 37.3654C0.697285 46.5364 -4 58.4182 -4 71.3869H4C4 60.3842 7.97785 50.3209 14.5787 42.5411L8.47852 37.3654ZM31.5701 -2.0273L8.08039 37.926L14.9768 41.9806L38.4665 2.0273L31.5701 -2.0273Z" fill="#FFF9F6" mask="url(#path-1-inside-1_231_24)"/>
<rect x="70.0366" y="51.6788" width="6.12821" height="12.2628" rx="3.0641" fill="#FFF9F6"/>
<path d="M52.0898 77.0803L46.3993 70.073L57.7803 70.073L52.0898 77.0803Z" fill="#FFCB2D"/>
<rect x="28.0146" y="51.6788" width="6.12821" height="12.2628" rx="3.0641" fill="#FFF9F6"/>
</svg>
