<svg width="478" height="120" viewBox="0 0 478 120" fill="none" xmlns="http://www.w3.org/2000/svg">
<mask id="path-1-inside-1_231_309" fill="white">
<path fill-rule="evenodd" clip-rule="evenodd" d="M399.264 0L412.653 22.7737H429.387C429.474 22.7737 429.56 22.7739 429.647 22.7744L443.037 0L466.653 40.1684C473.735 48.6139 478 59.5024 478 71.3869C478 98.2352 456.235 120 429.387 120H48.6131C21.7648 120 0 98.2352 0 71.3869C0 44.5386 21.7649 22.7737 48.6132 22.7737H385.874L399.264 0Z"/>
</mask>
<path fill-rule="evenodd" clip-rule="evenodd" d="M399.264 0L412.653 22.7737H429.387C429.474 22.7737 429.56 22.7739 429.647 22.7744L443.037 0L466.653 40.1684C473.735 48.6139 478 59.5024 478 71.3869C478 98.2352 456.235 120 429.387 120H48.6131C21.7648 120 0 98.2352 0 71.3869C0 44.5386 21.7649 22.7737 48.6132 22.7737H385.874L399.264 0Z" fill="#FFCB2D"/>
<path d="M412.653 22.7737L409.205 24.801L410.365 26.7737H412.653V22.7737ZM399.264 0L402.712 -2.0273L399.264 -7.89228L395.816 -2.0273L399.264 0ZM429.647 22.7744L429.626 26.7743L431.928 26.7864L433.095 24.8017L429.647 22.7744ZM443.037 0L446.485 -2.0273L443.037 -7.89228L439.588 -2.0273L443.037 0ZM466.653 40.1684L463.205 42.1957L463.374 42.4832L463.588 42.7387L466.653 40.1684ZM385.874 22.7737V26.7737H388.163L389.323 24.801L385.874 22.7737ZM416.101 20.7464L402.712 -2.0273L395.816 2.0273L409.205 24.801L416.101 20.7464ZM429.387 18.7737H412.653V26.7737H429.387V18.7737ZM429.668 18.7745C429.574 18.774 429.481 18.7737 429.387 18.7737V26.7737C429.467 26.7737 429.546 26.7739 429.626 26.7743L429.668 18.7745ZM433.095 24.8017L446.485 2.0273L439.588 -2.0273L426.199 20.7471L433.095 24.8017ZM439.588 2.0273L463.205 42.1957L470.101 38.1411L446.485 -2.0273L439.588 2.0273ZM482 71.3869C482 58.5278 477.382 46.737 469.718 37.5981L463.588 42.7387C470.089 50.4908 474 60.4769 474 71.3869H482ZM429.387 124C458.444 124 482 100.444 482 71.3869H474C474 96.026 454.026 116 429.387 116V124ZM48.6131 124H429.387V116H48.6131V124ZM-4 71.3869C-4 100.444 19.5557 124 48.6131 124V116C23.974 116 4 96.026 4 71.3869H-4ZM48.6132 18.7737C19.5557 18.7737 -4 42.3294 -4 71.3869H4C4 46.7477 23.974 26.7737 48.6132 26.7737V18.7737ZM385.874 18.7737H48.6132V26.7737H385.874V18.7737ZM395.816 -2.0273L382.426 20.7464L389.323 24.801L402.712 2.0273L395.816 -2.0273Z" fill="#FFF9F6" mask="url(#path-1-inside-1_231_309)"/>
<rect x="442.022" y="51.6788" width="6.12821" height="12.2628" rx="3.0641" fill="#5137FF"/>
<path d="M424.075 77.0803L418.385 70.073L429.766 70.073L424.075 77.0803Z" fill="#FF60FA"/>
<rect x="400" y="51.6788" width="6.12821" height="12.2628" rx="3.0641" fill="#5137FF"/>
</svg>
