<svg width="32" height="12" viewBox="0 0 32 12" fill="none" xmlns="http://www.w3.org/2000/svg">
<path d="M2 4C1.43333 4 0.958 3.808 0.574 3.424C0.191334 3.04133 0 2.56667 0 2C0 1.43333 0.191334 0.957999 0.574 0.573999C0.958 0.191333 1.43333 0 2 0H30C30.5667 0 31.0413 0.191333 31.424 0.573999C31.808 0.957999 32 1.43333 32 2C32 2.56667 31.808 3.04133 31.424 3.424C31.0413 3.808 30.5667 4 30 4H2ZM2 12C1.43333 12 0.958 11.808 0.574 11.424C0.191334 11.0413 0 10.5667 0 10C0 9.43333 0.191334 8.958 0.574 8.574C0.958 8.19133 1.43333 8 2 8H30C30.5667 8 31.0413 8.19133 31.424 8.574C31.808 8.958 32 9.43333 32 10C32 10.5667 31.808 11.0413 31.424 11.424C31.0413 11.808 30.5667 12 30 12H2Z" fill="#2B2B2B"/>
</svg>
